<svg xmlns="http://www.w3.org/2000/svg" viewBox="0 0 289.16 52.23"><defs><style>.cls-1{fill:#152238;}.cls-2{fill:#802a4f;}.cls-3{fill:#6baf00;}.cls-4{fill:#4bc6b1;}</style></defs><title>Responsival</title><g id="Layer_2" data-name="Layer 2"><g id="Layer_1-2" data-name="Layer 1"><path class="cls-1" d="M79,21.92c-2.24-.26-4.1,0-5.36,1.35s-1.4,3-1.4,4.73V38.68H66.65V16.93H72v2.16a7.27,7.27,0,0,1,7-2.58Z"/><path class="cls-1" d="M86.2,30a5.54,5.54,0,0,0,5.45,4.31,5,5,0,0,0,4.6-2.54h6c-1.27,4.44-5.11,7.44-10.52,7.44a11.41,11.41,0,0,1,0-22.81c6.42,0,11.74,5,10.94,13.6Zm10.9-4.56a5.46,5.46,0,0,0-5.45-4.14,5.57,5.57,0,0,0-5.36,4.14Z"/><path class="cls-1" d="M115.34,39.19c-5.53,0-9.63-2.92-10.3-7.6h5.66c.76,1.85,3,2.53,4.64,2.53,2.24,0,3.93-.68,3.93-1.94s-.76-1.73-4.56-2.33-9.08-1.64-9.08-6.5c0-3.42,3-7,9.29-7,5,0,8.7,2.71,9.42,6.8h-5.79c-.34-1-1.56-1.81-3.63-1.81-2.58,0-3.63.93-3.63,1.73,0,1.14,1.6,1.52,4.31,1.94,5.4.89,9.29,2.07,9.29,6.8C124.89,36.15,120.92,39.19,115.34,39.19Z"/><path class="cls-1" d="M140.72,39.14a9.06,9.06,0,0,1-6.37-2.57V48.35h-5.62V16.93h5.36v2.28a9.18,9.18,0,0,1,6.63-2.78c5.7,0,10.35,4.89,10.35,11.31S146.42,39.14,140.72,39.14Zm-.8-17.52a5.86,5.86,0,0,0-5.57,6.12c0,3.42,2.49,6.21,5.57,6.21s5.57-2.66,5.57-6.21S143,21.62,139.92,21.62Z"/><path class="cls-1" d="M175.52,27.83a11,11,0,1,1-21.92,0c0-6.51,4.9-11.45,10.94-11.45A11.12,11.12,0,0,1,175.52,27.83Zm-5.62,0c0-3.76-2.4-6.38-5.36-6.38s-5.36,2.62-5.36,6.38,2.4,6.21,5.36,6.21S169.9,31.54,169.9,27.87Z"/><path class="cls-1" d="M198.75,38.68h-5.58V26c0-1.27-.38-4.31-4-4.31A4.13,4.13,0,0,0,184.9,26V38.68h-5.58V16.93h5.32V19a7.22,7.22,0,0,1,5.62-2.66c5.11,0,8.49,3.85,8.49,9.59Z"/><path class="cls-1" d="M212.52,39.19c-5.54,0-9.63-2.92-10.31-7.6h5.66c.76,1.85,3,2.53,4.65,2.53,2.23,0,3.92-.68,3.92-1.94s-.76-1.73-4.56-2.33-9.08-1.64-9.08-6.5c0-3.42,3-7,9.29-7,5,0,8.7,2.71,9.42,6.8h-5.79c-.33-1-1.56-1.81-3.63-1.81-2.57,0-3.63.93-3.63,1.73,0,1.14,1.61,1.52,4.31,1.94,5.4.89,9.29,2.07,9.29,6.8C222.06,36.15,218.09,39.19,212.52,39.19Z"/><path class="cls-1" d="M231.6,14.57H226V9.37h5.57Zm0,24.11H226V16.93h5.57Z"/><path class="cls-1" d="M248.54,38.68h-6l-8.23-21.75h5.82l5.41,16.22L251,16.93h5.74Z"/><path class="cls-1" d="M273.16,36.65a8.79,8.79,0,0,1-6.67,2.45c-4.61,0-8.83-2.32-8.83-7.05,0-4.9,4.1-6.17,8.91-6.59,3.63-.34,6.21-.76,6.21-2.53,0-1.14-1.48-2.07-4-2.07-2,0-4.27.89-4.77,2.74h-5.58c.55-4.13,4.52-7.22,10.22-7.22,8.83,0,9.5,5.7,9.5,7.44V35.13a13,13,0,0,0,.64,3.55h-5.11A7.26,7.26,0,0,1,273.16,36.65ZM273,28.21a12.79,12.79,0,0,1-5.28,1.39c-2.74.3-4.43.89-4.43,2.49,0,1.23,1.43,2.07,3.67,2.07,3.34,0,6-1.14,6-3.93Z"/><path class="cls-1" d="M289.16,38.68h-5.57V7.26h5.57Z"/><path class="cls-2" d="M26.12,33.43A14.9,14.9,0,0,1,11.49,21.1a14.59,14.59,0,0,0-3.27,2.54A18.71,18.71,0,0,0,15,33.47a18.59,18.59,0,0,0,17.86,2.47,13.9,13.9,0,0,0,.19-2.3,14.25,14.25,0,0,0-.12-1.85A14.86,14.86,0,0,1,26.12,33.43Z"/><path class="cls-2" d="M26.12,0A18.61,18.61,0,0,0,7.53,18.18a19.26,19.26,0,0,1,4-2.19,14.84,14.84,0,0,1,29.23.12A15,15,0,0,1,41,18.59a16.31,16.31,0,0,1-.16,2.21A14.83,14.83,0,0,1,37,28.71a19.1,19.1,0,0,1,.64,4.51A18.62,18.62,0,0,0,44,23.53a18.33,18.33,0,0,0,.67-4.94A18.61,18.61,0,0,0,26.12,0Z"/><path class="cls-3" d="M11.55,20.58a15,15,0,0,1,9.87-1.5,19.08,19.08,0,0,1,4.17-2.67A18.62,18.62,0,0,0,7.44,18.76,18.6,18.6,0,0,0,25.59,50.87a19.45,19.45,0,0,1-4.17-2.67A14.84,14.84,0,0,1,3.76,33.64a14.75,14.75,0,0,1,4.08-10.2A15.09,15.09,0,0,1,11.55,20.58Z"/><path class="cls-3" d="M36.52,28.7a18.49,18.49,0,0,0-5.82-9.18,14.33,14.33,0,0,0-4.18,1.59,14.73,14.73,0,0,1,6.74,10.32,14.8,14.8,0,0,1-6.74,14.74,14.31,14.31,0,0,0,4.18,1.58,18.59,18.59,0,0,0,6.49-14.11A18.33,18.33,0,0,0,36.52,28.7Z"/><path class="cls-4" d="M45.12,19a19.18,19.18,0,0,1-.64,4.52A14.82,14.82,0,0,1,33.64,48.47a15.16,15.16,0,0,1-2.93-.29A14.6,14.6,0,0,1,26,46.35a14.79,14.79,0,0,1-7-10.11,18.64,18.64,0,0,1-4-2.19A18.59,18.59,0,1,0,45.12,19Z"/><path class="cls-4" d="M26,20.92a14.84,14.84,0,0,1,4.7-1.83,15,15,0,0,1,9.7,1.35,14.25,14.25,0,0,0,.12-1.85,14.92,14.92,0,0,0-.18-2.29,18.57,18.57,0,0,0-14.15.29,18.66,18.66,0,0,0-10.46,12A14.46,14.46,0,0,0,19,31.14,14.8,14.8,0,0,1,26,20.92Z"/></g></g></svg>